<?xml version="1.0" encoding="UTF-8"?>
<svg id="_레이어_1" data-name="레이어 1" xmlns="http://www.w3.org/2000/svg" viewBox="0 0 22 18">
  <defs>
    <style>
      .cls-1 {
        fill: red;
      }
    </style>
  </defs>
  <path class="cls-1" d="M19.29,9c2.58-4.5-.49-7.12-1.39-7.86-.92-.76-2.05-1.14-3.4-1.14-.87,0-1.69,.18-2.47,.55-.78,.37-1.46,.88-2.03,1.55-.57-.67-1.24-1.18-2.03-1.55-.78-.37-1.61-.55-2.47-.55C3.93,0,2.62,.52,1.58,1.56S0,3.91,0,5.47c0,.77,.13,1.5,.39,2.2,.26,.7,.67,1.42,1.22,2.17s1.27,1.55,2.12,2.4,1.89,1.82,3.09,2.9l3.17,2.85,1.45-1.3c.43-.38,.93-.82,1.5-1.31,.44-.38,2.83-2.72,4.05-3.91v2.53h2v-3h3v-2h-2.71Zm-7.77,4.97c-.58,.5-1.09,.94-1.53,1.33-1.6-1.4-2.92-2.6-3.95-3.59-1.03-.99-1.85-1.86-2.45-2.6-.6-.74-1.02-1.4-1.25-1.96-.23-.57-.35-1.12-.35-1.68,0-1,.35-1.83,1.04-2.49,.69-.66,1.51-.99,2.46-.99,.78,0,1.5,.23,2.16,.69,.66,.46,1.25,1.06,1.76,1.81h1.15c.53-.75,1.11-1.35,1.72-1.81,.62-.46,1.35-.69,2.2-.69,.63,0,1.24,.17,1.83,.5,.46,.26,2.07,1.38,1.82,3.5h-1.14v3h-3v2h.61c-1.23,1.2-2.74,2.68-3.09,2.97Z"/>
</svg>